<?xml version="1.0" standalone="no"?>
<!DOCTYPE svg PUBLIC "-//W3C//DTD SVG 20010904//EN"
 "http://www.w3.org/TR/2001/REC-SVG-20010904/DTD/svg10.dtd">
<svg version="1.0" xmlns="http://www.w3.org/2000/svg"
 width="249.000000pt" height="249.000000pt" viewBox="0 0 249.000000 249.000000"
 preserveAspectRatio="xMidYMid meet">
<metadata>
Created by potrace 1.11, written by Peter Selinger 2001-2013
</metadata>
<g transform="translate(0.000000,249.000000) scale(0.100000,-0.100000)"
fill="#000000" stroke="none">
<path d="M1135 2443 c-174 -23 -333 -73 -473 -151 l-83 -46 60 -17 c131 -35
211 -144 211 -284 0 -19 1 -35 3 -35 2 0 26 11 53 24 115 56 189 71 339 71
155 -1 217 -13 336 -69 l67 -31 4 65 c6 75 25 119 77 173 44 47 80 67 146 82
l50 12 -80 46 c-209 123 -496 188 -710 160z"/>
<path d="M528 2184 c-3 -3 -27 -7 -54 -9 -39 -3 -54 -11 -90 -46 -43 -42 -46
-50 -60 -162 -15 -113 76 -229 199 -252 61 -12 162 14 207 52 22 20 37 40 34
47 -3 8 2 29 12 48 41 79 10 207 -64 268 -49 41 -164 75 -184 54z"/>
<path d="M1880 2171 c-136 -44 -207 -174 -165 -300 9 -28 14 -54 11 -59 -3 -5
12 -26 34 -47 37 -36 48 -40 156 -61 18 -4 56 1 88 10 79 23 139 83 162 162
37 128 -31 281 -130 290 -17 1 -53 5 -81 8 -27 3 -61 2 -75 -3z"/>
<path d="M232 1885 c-243 -376 -250 -864 -20 -1249 l42 -71 7 46 c18 124 125
217 259 227 l65 4 -32 66 c-42 87 -64 177 -70 292 -8 147 15 267 78 394 16 33
29 60 29 61 0 1 -28 5 -63 7 -73 6 -117 26 -170 77 -46 43 -76 97 -86 154 l-7
42 -32 -50z"/>
<path d="M2221 1866 c-28 -125 -144 -216 -276 -216 l-41 0 33 -68 c54 -113 68
-180 68 -337 0 -158 -14 -223 -70 -342 l-34 -73 60 0 c33 0 76 -7 96 -15 89
-37 158 -122 169 -207 l7 -48 29 46 c85 135 145 295 173 464 43 253 -16 547
-155 781 -23 38 -42 69 -44 69 -1 0 -8 -24 -15 -54z"/>
<path d="M490 781 c-107 -35 -179 -122 -180 -218 0 -60 29 -175 48 -193 33
-29 131 -60 191 -60 40 0 109 26 148 56 63 48 101 155 82 229 -5 22 -14 56
-19 75 -12 45 -75 104 -115 107 -16 1 -52 4 -80 7 -27 3 -61 2 -75 -3z"/>
<path d="M1861 765 c-18 -8 -44 -15 -57 -15 -26 0 -68 -49 -77 -90 -3 -14 -10
-44 -16 -67 -12 -46 -2 -112 24 -163 18 -35 79 -89 121 -106 37 -16 116 -18
182 -5 43 8 102 53 102 76 0 7 8 27 17 46 12 23 18 57 18 105 0 61 -4 77 -30
120 -43 68 -109 107 -189 111 -39 2 -73 -2 -95 -12z"/>
<path d="M837 523 c-8 -78 -43 -150 -98 -196 -41 -35 -113 -67 -153 -67 -20 0
-20 -2 4 -21 35 -28 213 -114 288 -139 336 -111 706 -62 1017 134 l40 25 -38
1 c-53 0 -98 21 -153 72 -56 51 -82 105 -90 187 -4 34 -8 61 -9 61 -2 0 -31
-13 -66 -30 -110 -51 -180 -64 -329 -65 -153 0 -235 16 -342 68 l-66 32 -5
-62z"/>
</g>
</svg>
